<svg width="32" height="32" viewBox="0 0 32 32" fill="none" xmlns="http://www.w3.org/2000/svg">
<path d="M28 17.3333V21.3333C28 24.2787 25.6121 26.6666 22.6667 26.6666H9.33333C6.38781 26.6666 4 24.2787 4 21.3333V18.1333C4 17.6914 4.35817 17.3333 4.8 17.3333H28Z" stroke="#C1D7E2" stroke-width="2" stroke-linecap="round" stroke-linejoin="round"/>
<path d="M21.333 26.6667L22.6663 29.3334" stroke="#C1D7E2" stroke-width="2" stroke-linecap="round" stroke-linejoin="round"/>
<path d="M10.6663 26.6667L9.33301 29.3334" stroke="#C1D7E2" stroke-width="2" stroke-linecap="round" stroke-linejoin="round"/>
<path d="M28 17.3333V9.33333C28 6.38781 25.6121 4 22.6667 4H16" stroke="#C1D7E2" stroke-width="2" stroke-linecap="round" stroke-linejoin="round"/>
<path d="M20.5333 10.6667H11.4667C11.0249 10.6667 10.6719 10.3089 10.7203 9.86973C10.915 8.10052 11.8175 4 16 4C20.1825 4 21.0851 8.10052 21.2797 9.86973C21.3281 10.3089 20.9752 10.6667 20.5333 10.6667Z" stroke="#C1D7E2" stroke-width="2" stroke-linecap="round" stroke-linejoin="round"/>
</svg>
