<svg width="32" height="32" viewBox="0 0 32 32" fill="none" xmlns="http://www.w3.org/2000/svg">
<path d="M4.57129 14.8572H27.4284" stroke="#C7C7DD" stroke-width="2" stroke-linecap="round" stroke-linejoin="round"/>
<path d="M9.33301 18.6667H10.6663" stroke="#C7C7DD" stroke-width="2" stroke-linecap="round" stroke-linejoin="round"/>
<path d="M21.333 18.6667H22.6663" stroke="#C7C7DD" stroke-width="2" stroke-linecap="round" stroke-linejoin="round"/>
<path d="M4 23.9999V15.2139C4 14.8529 5.21622 14.4954 5.35847 14.1635L8.45019 6.94947C8.8704 5.96897 9.83451 5.33325 10.9012 5.33325H21.0987C22.1655 5.33325 23.1295 5.96897 23.5498 6.94947L26.6415 14.1635C26.7838 14.4954 28 14.8529 28 15.2139V23.9999M4 23.9999V27.1999C4 27.6418 4.35817 27.9999 4.8 27.9999H8.53333C8.97516 27.9999 9.33333 27.6418 9.33333 27.1999V23.9999M4 23.9999H9.33333M28 23.9999V27.1999C28 27.6418 27.6419 27.9999 27.2 27.9999H23.4667C23.0248 27.9999 22.6667 27.6418 22.6667 27.1999V23.9999M28 23.9999H22.6667M9.33333 23.9999H22.6667" stroke="#C7C7DD" stroke-width="2"/>
</svg>
