<svg width="32" height="32" viewBox="0 0 32 32" fill="none" xmlns="http://www.w3.org/2000/svg">
<path d="M2.66699 21.3333V25.3333" stroke="#F0DF9C" stroke-width="2" stroke-linecap="round" stroke-linejoin="round"/>
<path d="M16 17.3334V9.33341C16 7.86065 17.1939 6.66675 18.6667 6.66675H24C25.4728 6.66675 26.6667 7.86065 26.6667 9.33341V12.0001" stroke="#F0DF9C" stroke-width="2" stroke-linecap="round" stroke-linejoin="round"/>
<path d="M15.9997 17.3334V9.33341C15.9997 7.86065 14.8058 6.66675 13.333 6.66675H7.99967C6.52691 6.66675 5.33301 7.86065 5.33301 9.33341V12.0001" stroke="#F0DF9C" stroke-width="2" stroke-linecap="round" stroke-linejoin="round"/>
<path d="M26.667 12C25.1942 12 24.0003 13.1939 24.0003 14.6667V17.3333H8.00033V14.6667C8.00033 13.1939 6.80642 12 5.33366 12C3.8609 12 2.66699 13.1939 2.66699 14.6667V22.6667H29.3337V14.6667C29.3337 13.1939 28.1398 12 26.667 12Z" stroke="#F0DF9C" stroke-width="2" stroke-linecap="round" stroke-linejoin="round"/>
<path d="M29.333 21.3333V25.3333" stroke="#F0DF9C" stroke-width="2" stroke-linecap="round" stroke-linejoin="round"/>
</svg>
